<svg xmlns="http://www.w3.org/2000/svg" viewBox="0 0 35.6 35.6"><path d="M35.6 17.8c0 9.8-8 17.8-17.8 17.8S0 27.6 0 17.8 8 0 17.8 0 35.6 8 35.6 17.8zM17.8 2.1c-8.7 0-15.7 7-15.7 15.7s7 15.7 15.7 15.7 15.7-7 15.7-15.7S26.5 2.1 17.8 2.1zM22.5 13.2v2.7h-2.8v11.9h-4.2V15.9c-0.8 0-1.6 0-2.4 0v-2.7c0.8 0 1.5 0 2.3 0 0-0.5 0-1 0-1.5 0-0.5 0.1-0.9 0.2-1.3 0.1-0.3 0.2-0.5 0.3-0.6C16 9.4 16.4 8.7 17.2 8.3c0.4-0.2 0.8-0.3 1.3-0.4C19 7.8 19.4 7.8 19.7 7.8c0.9 0 1.8 0 2.8 0.1 0 1 0 1.9 0 2.9 -0.8 0-1.3 0-1.7 0 -0.3 0-0.5 0-0.8 0.2 -0.3 0.2-0.3 0.6-0.3 0.8l0 1.4H22.5z"/></svg>