<svg xmlns="http://www.w3.org/2000/svg" viewBox="0 0 9.41 20"><style type="text/css"> .st0{fill:#010101;} </style><path class="st0" d="M9.41 5.43L9.41 8.13h-2.84v11.87H2.38L2.38 8.14C1.59 8.14 0.8 8.14 0.01 8.14L0.01 5.43c0.77 0 1.54 0 2.31 0 0-0.5 0.01-0.99 0.01-1.49C2.33 3.42 2.38 3.01 2.5 2.62c0.09-0.31 0.21-0.53 0.26-0.65C2.91 1.69 3.29 0.99 4.08 0.55c0.43-0.24 0.82-0.31 1.25-0.38 0.58-0.1 1.02-0.08 1.32-0.07C7.57 0.12 8.49 0.14 9.41 0.16c0 0.97 0.01 1.93 0.01 2.9 -0.77 0-1.33 0-1.73-0.01 -0.28 0-0.54-0.01-0.76 0.17C6.66 3.45 6.63 3.83 6.63 3.98L6.64 5.43 9.41 5.43z"/></svg>