<svg xmlns="http://www.w3.org/2000/svg" viewBox="0 0 36.024 25.599"><path d="M36.021 3.64c0.001 6.315 0.002 12.63 0.003 18.945 -0.044 0.375-0.176 0.995-0.613 1.592 -1.036 1.415-2.851 1.416-3.07 1.412 -9.526 0.004-19.052 0.007-28.578 0.011 -1.217-0.355-2.798-1.055-3.452-2.505 -0.336-0.744-0.299-1.42-0.298-1.697 0.021-5.862 0.032-11.725-0.014-17.587C-0.006 2.981 0.28 2.286 0.686 1.695 1.184 0.97 1.871 0.333 2.807 0.12c0.215-0.049 0.433-0.114 0.65-0.114 9.726-0.006 19.452-0.009 29.178 0.004 0.193 0 0.727 0.052 1.326 0.341 0.161 0.078 0.914 0.459 1.47 1.334C35.947 2.494 36.013 3.286 36.021 3.64zM30.458 23.375c-2.833-2.833-5.667-5.667-8.5-8.5 -1.307 1.33-2.614 2.66-3.92 3.99 -1.318-1.316-2.636-2.632-3.955-3.948C11.264 17.736 8.444 20.556 5.625 23.375 13.903 23.375 22.181 23.375 30.458 23.375zM4.13 2.032C8.795 6.688 13.46 11.344 18.125 16c4.667-4.667 9.333-9.333 14-14C22.793 2.011 13.461 2.021 4.13 2.032zM12.35 13.501c-3.418-3.418-6.847-6.847-10.3-10.3 0 6.445 0 12.884 0 19.165 0.007 0.043 0.056 0.325 0.3 0.465 0.251 0.144 0.606 0.081 0.842-0.175C6.245 19.605 9.297 16.553 12.35 13.501zM32.808 22.656c0.236 0.256 0.59 0.319 0.842 0.175 0.245-0.141 0.294-0.422 0.3-0.465 0-6.28 0-12.72 0-19.165 -3.453 3.453-6.882 6.882-10.3 10.3C26.703 16.553 29.755 19.605 32.808 22.656z"/></svg>