<svg xmlns="http://www.w3.org/2000/svg" viewBox="0 0 17.5 24.1"><path d="M0.4 3.1c0.1-0.4 0.6-1.5 1.8-2.3C3.4 0 4.6 0 5.1 0c0.1 2.3 0.1 4.6 0.2 6.9 -0.2 0-0.4 0.1-0.7 0.3 -0.1 0.1-0.7 0.7-0.3 2.8 0.2 0.9 0.4 1.4 1.9 4.3 0.7 1.3 1.3 2.4 2.3 3.3 0.5 0.4 1 0.7 1.6 0.7 0.4 0 0.8-0.2 1-0.3 1.8 1.4 3.7 2.9 5.5 4.3 -0.4 0.3-0.9 0.6-1.7 1 0 0-1.2 0.6-2.3 0.8 -2.2 0.4-4.7-1.7-5.5-2.3 -3.1-2.6-4.4-5.8-5.6-8.7 0 0-1.3-3.3-1.5-7.6C0 5 0 4.1 0.4 3.1zM6.2 0c0.1 2.3 0.2 4.5 0.2 6.8 0.4-0.1 1.1-0.2 1.6-0.8 0.1-0.2 0.4-0.6 0.3-2.6C8.2 1.1 7.9 0.8 7.8 0.6 7.3 0.1 6.6 0 6.2 0zM11.8 17.5c1.8 1.4 3.5 2.8 5.3 4.3 0.2-0.3 0.6-1 0.4-1.7 0-0.2-0.2-0.6-1.8-1.9 -1.7-1.4-2.2-1.4-2.4-1.4C12.6 16.7 12.1 17.2 11.8 17.5z"/></svg>