<svg xmlns="http://www.w3.org/2000/svg" viewBox="0 0 17.06 25.47"><path d="M9.24 0c0.37 0.06 0.73 0.12 1.1 0.19 3.36 0.7 6.01 3.48 6.61 6.86 0.28 1.55-0.01 3.01-0.53 4.45 -0.68 1.86-1.57 3.63-2.52 5.37 -1.59 2.9-3.35 5.69-5.23 8.42 -0.04 0.05-0.08 0.1-0.14 0.18 -0.43-0.64-0.85-1.24-1.25-1.86 -1.84-2.8-3.6-5.66-5.11-8.66 -0.75-1.49-1.43-3-1.88-4.61C-0.3 8.25 0.04 6.27 1.08 4.42 2.4 2.04 4.44 0.62 7.11 0.11 7.35 0.07 7.59 0.04 7.84 0 8.31 0 8.77 0 9.24 0zM8.53 23.56c0.05-0.07 0.09-0.11 0.12-0.16 1.36-2.2 2.74-4.39 4.06-6.62 1.06-1.8 1.99-3.67 2.71-5.64 0.43-1.18 0.71-2.39 0.51-3.67 -0.51-3.4-3.23-6.06-6.64-6.37C6.41 0.86 4.07 1.94 2.4 4.31c-1.15 1.64-1.61 3.48-1.15 5.48 0.32 1.39 0.9 2.68 1.51 3.95 1.47 3.02 3.21 5.89 5.03 8.7C8.03 22.81 8.28 23.18 8.53 23.56z"/><path d="M8.52 12.26c-2.06-0.01-3.73-1.69-3.72-3.75 0.01-2.07 1.7-3.72 3.81-3.71 2.01 0.01 3.68 1.72 3.67 3.75C12.27 10.61 10.59 12.27 8.52 12.26zM5.88 8.53c0 1.47 1.2 2.68 2.67 2.67 1.46-0.01 2.65-1.2 2.65-2.66 0-1.48-1.2-2.68-2.67-2.67C7.06 5.88 5.88 7.06 5.88 8.53z"/></svg>